<?xml version="1.0" standalone="no"?>
<!DOCTYPE svg PUBLIC "-//W3C//DTD SVG 20010904//EN"
 "http://www.w3.org/TR/2001/REC-SVG-20010904/DTD/svg10.dtd">
<svg version="1.0" xmlns="http://www.w3.org/2000/svg"
 width="626.000000pt" height="626.000000pt" viewBox="0 0 626.000000 626.000000"
 preserveAspectRatio="xMidYMid meet">

<g transform="translate(0.000000,626.000000) scale(0.100000,-0.100000)"
fill="#000000" stroke="none">
<path d="M2650 5410 c-255 -182 -611 -433 -790 -557 -179 -124 -340 -237 -357
-250 l-33 -24 0 -458 0 -457 -82 -24 c-110 -31 -309 -102 -438 -157 -106 -45
-367 -175 -427 -213 l-33 -20 0 -810 0 -810 163 0 c322 0 531 -51 1082 -262
465 -179 735 -261 1020 -310 172 -29 518 -32 695 -5 308 48 610 138 1085 325
304 119 404 153 622 206 209 51 284 60 460 53 l153 -6 0 805 0 804 -82 54
c-164 106 -406 213 -693 306 -88 28 -170 55 -182 60 l-23 10 0 454 0 455 -187
134 c-212 151 -992 698 -1273 892 -102 70 -192 130 -200 131 -8 2 -224 -145
-480 -326z m602 -53 c96 -68 406 -287 863 -607 363 -255 412 -290 424 -303 8
-11 10 -374 9 -1403 l-3 -1388 -114 -49 c-178 -75 -454 -173 -616 -218 -81
-22 -148 -39 -150 -37 -1 2 -5 257 -8 568 l-5 565 -53 17 c-30 9 -136 41 -236
71 l-183 54 0 -674 0 -673 -49 0 c-37 0 -50 4 -56 18 -3 9 -5 308 -4 664 1
356 1 650 -2 652 -4 4 -84 -19 -351 -105 l-108 -34 0 -562 c0 -468 -2 -563
-14 -563 -52 0 -458 133 -756 247 l-125 48 -3 1401 -2 1400 707 496 c390 273
713 495 720 493 7 -2 59 -37 115 -78z m-1782 -2792 c0 -678 -2 -825 -13 -825
-8 0 -47 11 -88 25 -160 55 -405 109 -556 122 l-73 6 0 603 0 604 89 45 c190
95 571 245 624 245 16 0 17 -46 17 -825z m3497 769 c185 -65 424 -163 506
-206 l57 -31 0 -603 0 -604 -56 0 c-104 0 -266 -31 -468 -89 -111 -32 -204
-56 -208 -54 -12 7 -10 1643 2 1643 5 0 81 -25 167 -56z m-1929 -1396 l3 -68
-66 0 -65 0 0 70 0 71 63 -3 62 -3 3 -67z m312 -8 l0 -70 -65 0 -65 0 0 70 0
70 65 0 65 0 0 -70z"/>
<path d="M2830 5019 c-110 -21 -237 -114 -296 -216 -149 -253 -92 -574 151
-857 82 -95 408 -356 445 -356 32 0 292 203 406 318 139 139 218 276 254 437
35 161 25 284 -36 413 -60 124 -178 220 -319 257 -46 12 -114 15 -310 14 -137
-1 -270 -5 -295 -10z m472 -306 l3 -158 148 -3 147 -3 0 -164 0 -165 -150 0
-150 0 0 -150 0 -150 -170 0 -170 0 0 151 0 150 -146 -2 c-117 -2 -148 1 -154
12 -4 8 -5 83 -2 167 l5 152 148 0 149 0 0 160 0 160 170 0 169 0 3 -157z"/>
<path d="M2030 3615 l0 -175 175 0 175 0 0 129 c0 70 3 149 6 175 l7 46 -182
0 -181 0 0 -175z"/>
<path d="M3880 3613 l0 -178 170 0 170 0 0 178 0 177 -170 0 -170 0 0 -177z"/>
<path d="M3880 3150 l0 -180 170 0 170 0 0 178 0 177 -170 3 -170 2 0 -180z"/>
<path d="M2035 3145 l0 -175 178 0 177 0 0 175 0 175 -177 0 -178 0 0 -175z"/>
<path d="M2620 3145 l0 -175 190 0 190 0 0 175 0 175 -190 0 -190 0 0 -175z"/>
<path d="M3270 3145 l0 -175 170 0 170 0 0 175 0 175 -170 0 -170 0 0 -175z"/>
<path d="M2038 2515 l3 -175 174 0 175 0 0 175 0 175 -177 0 -178 0 3 -175z"/>
<path d="M3880 2515 l0 -175 170 0 170 0 0 175 0 175 -170 0 -170 0 0 -175z"/>
<path d="M950 2850 l0 -170 165 0 165 0 0 170 0 170 -165 0 -165 0 0 -170z"/>
<path d="M950 2393 l0 -163 165 0 165 0 0 163 0 162 -165 0 -165 0 0 -162z"/>
<path d="M4970 2855 l0 -175 175 0 175 0 0 175 0 175 -175 0 -175 0 0 -175z"/>
<path d="M4970 2395 l0 -165 175 0 175 0 0 165 0 165 -175 0 -175 0 0 -165z"/>
<path d="M572 1460 c-46 -28 -67 -82 -53 -131 6 -21 24 -48 39 -60 66 -52 723
-355 749 -345 8 3 12 2 9 -3 -3 -5 6 -14 22 -19 15 -6 95 -35 177 -65 667
-246 1327 -353 1880 -307 541 46 1153 208 1755 467 181 77 528 253 559 283 25
22 31 36 31 70 0 74 -47 130 -108 130 -17 0 -94 -32 -173 -71 -347 -172 -675
-308 -954 -398 -219 -70 -204 -66 -355 -105 -660 -172 -1123 -191 -1725 -71
-224 45 -419 99 -705 194 -335 112 -407 143 -964 406 -99 47 -140 53 -184 25z"/>
</g>
</svg>
